# xmcd
#
# Track frame offsets: 
#        300
#        20625
#        45249
#        59560
#        83666
#        97380
#        120918
#        160895
#
# Disc length: 2305 seconds
#
# Revision: 5
# Processed by: cddbd v1.5.2PL0 Copyright (c) Steve Scherf et al.
# Submitted via: ExactAudioCopy v1.0b1
#
DISCID=6108fd08
DTITLE=Albert Collins - Ice Pickin'
DYEAR=1978
DGENRE=Texas Blues
TTITLE0=Honey. Hush! (Talking Woman Blues)
TTITLE1=When The Welfare Turns Its Back On You
TTITLE2=Ice Pick
TTITLE3=Cold, Cold Feeling
TTITLE4=Too Tired
TTITLE5=Master Charge
TTITLE6=Conversation With Collins
TTITLE7=Avalanche
EXTD=
EXTT0=
EXTT1=
EXTT2=
EXTT3=
EXTT4=
EXTT5=
EXTT6=
EXTT7=
PLAYORDER=
